<svg id="Layer_2" data-name="Layer 2" xmlns="http://www.w3.org/2000/svg" viewBox="0 0 1750.39 576.09"><defs><style>.cls-1{fill:#fff;}.cls-2{isolation:isolate;}</style></defs><g id="museum_of_SCIENCE_NATURE_Oslo-2" data-name="museum of SCIENCE NATURE Oslo-2"><path class="cls-1" d="M21.09,53.57l.32,14a31.87,31.87,0,0,1,11.93-11.7A32.75,32.75,0,0,1,49.26,52q20.37,0,25.86,16.71A32.37,32.37,0,0,1,87.46,56.32a34.16,34.16,0,0,1,17-4.34q27.69,0,28.25,30.24v57.46h-9.55V82.94q-.07-11.53-5-17.11t-16-5.57A25.4,25.4,0,0,0,84.91,66.9,23.5,23.5,0,0,0,77,82.7v57H67.48V82.22q-.08-11.06-5.21-16.51t-15.8-5.45A24,24,0,0,0,31,65.39q-6.45,5.13-9.55,15.24v59.05H11.94V53.57Z" transform="translate(-7.62 -15.77)"/><path class="cls-1" d="M212.24,128.78q-8.6,12.5-27.45,12.49-13.77,0-20.93-8t-7.33-23.67v-56H166V108.4q0,24.6,19.9,24.6,20.68,0,26.18-17.11V53.57h9.55v86.11H212.4Z" transform="translate(-7.62 -15.77)"/><path class="cls-1" d="M298,117.8a13.56,13.56,0,0,0-5.69-11.38q-5.7-4.31-17.15-6.73t-17.79-5.57a23.65,23.65,0,0,1-9.39-7.68,19.15,19.15,0,0,1-3.06-11q0-10.18,8.51-16.83T275.19,52q14.4,0,23.12,7.12A22.87,22.87,0,0,1,307,77.69h-9.55a15.44,15.44,0,0,0-6.33-12.58q-6.31-5-15.95-5-9.39,0-15.08,4.18a12.86,12.86,0,0,0-5.69,10.86,11.76,11.76,0,0,0,4.73,10q4.74,3.54,17.27,6.48T295.2,97.9a24.25,24.25,0,0,1,9.27,8,22.09,22.09,0,0,1-5.77,28.81q-8.79,6.52-23,6.52-15,0-24.39-7.28T242,115.57h9.55a16.54,16.54,0,0,0,7.05,13q6.48,4.65,17.14,4.65,10,0,16.08-4.37T298,117.8Z" transform="translate(-7.62 -15.77)"/><path class="cls-1" d="M362.25,141.27a37.39,37.39,0,0,1-19.86-5.41,36.89,36.89,0,0,1-13.8-15.08,47,47,0,0,1-4.94-21.69V95.67a50.67,50.67,0,0,1,4.82-22.36,38.37,38.37,0,0,1,13.41-15.64A33.09,33.09,0,0,1,360.5,52q15.67,0,24.87,10.71t9.19,29.24v5.33H333.12v1.83q0,14.66,8.4,24.4a26.72,26.72,0,0,0,21.13,9.74,31,31,0,0,0,13.49-2.78,30,30,0,0,0,10.62-8.91l6,4.53Q382.22,141.28,362.25,141.27ZM360.5,60.1A23.83,23.83,0,0,0,342.39,68q-7.35,7.88-8.95,21.17h51.65v-1q-.4-12.4-7.08-20.21T360.5,60.1Z" transform="translate(-7.62 -15.77)"/><path class="cls-1" d="M468.49,128.78q-8.6,12.5-27.46,12.49-13.77,0-20.93-8t-7.32-23.67v-56h9.47V108.4q0,24.6,19.9,24.6,20.69,0,26.18-17.11V53.57h9.55v86.11h-9.23Z" transform="translate(-7.62 -15.77)"/><path class="cls-1" d="M511.3,53.57l.32,14a31.82,31.82,0,0,1,11.94-11.7A32.71,32.71,0,0,1,539.47,52q20.37,0,25.87,16.71a32.34,32.34,0,0,1,12.33-12.37,34.19,34.19,0,0,1,17-4.34Q622.39,52,623,82.22v57.46H613.4V82.94q-.07-11.53-5-17.11t-16-5.57a25.42,25.42,0,0,0-17.35,6.64,23.49,23.49,0,0,0-7.87,15.8v57H557.7V82.22q-.09-11.06-5.22-16.51t-15.79-5.45a24,24,0,0,0-15.44,5.13q-6.45,5.13-9.55,15.24v59.05h-9.55V53.57Z" transform="translate(-7.62 -15.77)"/><path class="cls-1" d="M681.44,95.35A50.67,50.67,0,0,1,686.26,73,36.17,36.17,0,0,1,719.8,52Q737,52,747.66,64T758.32,96v2a51.11,51.11,0,0,1-4.82,22.48,36,36,0,0,1-13.56,15.4,37.21,37.21,0,0,1-20,5.41q-17.12,0-27.81-12.05t-10.71-32ZM691,98q0,15.43,8,25.35a27.07,27.07,0,0,0,41.86,0q8-9.92,8-26.15V95.35a43.8,43.8,0,0,0-3.66-18.06A29.35,29.35,0,0,0,734.92,64.6a26.2,26.2,0,0,0-15.12-4.5,25.44,25.44,0,0,0-20.77,10q-8,10-8,26.14Z" transform="translate(-7.62 -15.77)"/><path class="cls-1" d="M784.82,139.68V61.37H770.57v-7.8h14.25V43.15q0-13.21,6.72-20.29t18.74-7.09a36.83,36.83,0,0,1,10.11,1.34l-.72,7.9a36.9,36.9,0,0,0-8.67-1q-7.87,0-12.25,4.91t-4.38,13.92V53.57H814.9v7.8H794.37v78.31Z" transform="translate(-7.62 -15.77)"/><g class="cls-2"><path class="cls-1" d="M93.62,340.74q0-9.89-7-15.24T61.59,314.68q-18.14-5.46-28.84-12.15Q12.26,289.66,12.26,269q0-18.13,14.77-29.87T65.4,227.35q15.64,0,27.91,5.77a45.82,45.82,0,0,1,19.26,16.42,42.22,42.22,0,0,1,7,23.64H93.62q0-11.74-7.37-18.38t-21.06-6.65q-12.76,0-19.82,5.46t-7.06,15.24q0,8.25,7.62,13.75t25.13,10.71q17.5,5.2,28.12,11.85t15.55,15.24a39.73,39.73,0,0,1,4.94,20.13q0,18.75-14.36,29.82t-39,11.07a73.32,73.32,0,0,1-29.91-6q-13.65-6-21.22-16.64a41.41,41.41,0,0,1-7.57-24.71H33.68q0,12.76,8.44,19.77t24.2,7q13.61,0,20.45-5.51A17.79,17.79,0,0,0,93.62,340.74Z" transform="translate(-7.62 -15.77)"/><path class="cls-1" d="M257,330.54q-2.28,24-17.72,37.44t-41.09,13.44q-17.93,0-31.57-8.5a55.81,55.81,0,0,1-21.06-24.15q-7.41-15.64-7.72-36.35v-14q0-21.21,7.52-37.38a56.68,56.68,0,0,1,21.57-24.93q14.06-8.74,32.5-8.75,24.81,0,40,13.44t17.62,38H231q-1.84-16.17-9.42-23.32t-22.19-7.16q-17,0-26.11,12.42T164,297.22v13.3q0,24.33,8.7,37.11t25.49,12.78q15.35,0,23.07-6.9t9.78-23Z" transform="translate(-7.62 -15.77)"/><path class="cls-1" d="M307.73,379.36h-26v-150h26Z" transform="translate(-7.62 -15.77)"/><path class="cls-1" d="M427.4,312.42H365.81v46.14h72v20.8h-98v-150h97.32v21H365.81v41.4H427.4Z" transform="translate(-7.62 -15.77)"/><path class="cls-1" d="M578,379.36H551.91L485.07,273V379.36H459v-150h26.05l67.05,106.8V229.41H578Z" transform="translate(-7.62 -15.77)"/><path class="cls-1" d="M723.18,330.54q-2.26,24-17.71,37.44t-41.09,13.44q-17.93,0-31.57-8.5a55.68,55.68,0,0,1-21.06-24.15q-7.41-15.64-7.72-36.35v-14q0-21.21,7.51-37.38a56.77,56.77,0,0,1,21.58-24.93q14.05-8.74,32.49-8.75,24.82,0,40,13.44t17.61,38H697.23q-1.85-16.17-9.42-23.32t-22.2-7.16q-17,0-26.1,12.42t-9.32,36.44v13.3q0,24.33,8.7,37.11t25.49,12.78q15.35,0,23.07-6.9t9.78-23Z" transform="translate(-7.62 -15.77)"/><path class="cls-1" d="M834.1,312.42H772.51v46.14h72v20.8h-98v-150h97.32v21H772.51v41.4H834.1Z" transform="translate(-7.62 -15.77)"/><path class="cls-1" d="M921.13,296.87h39.13v22.86H921.13v44.59H896.82V319.73H857.48V296.87h39.34V255.16h24.31Z" transform="translate(-7.62 -15.77)"/><path class="cls-1" d="M1102.18,379.36h-26.06L1009.29,273V379.36H983.23v-150h26.06l67,106.8V229.41h25.85Z" transform="translate(-7.62 -15.77)"/><path class="cls-1" d="M1218.76,344.45h-58.08l-12.15,34.91h-27.09l56.64-150h23.38l56.75,150H1231Zm-50.77-21h43.46l-21.73-62.21Z" transform="translate(-7.62 -15.77)"/><path class="cls-1" d="M1371.19,250.42h-46.76V379.36h-25.85V250.42h-46.35v-21h119Z" transform="translate(-7.62 -15.77)"/><path class="cls-1" d="M1500.54,229.41V329.62q0,23.89-15.29,37.84t-40.74,14q-25.74,0-40.88-13.75t-15.14-38.16V229.41h26V329.72q0,15,7.62,23t22.45,7.93q30.08,0,30.08-31.72V229.41Z" transform="translate(-7.62 -15.77)"/><path class="cls-1" d="M1583.44,321.69h-29v57.67h-26.05v-150h52.73q26,0,40.06,11.65t14.11,33.7q0,15.06-7.26,25.2t-20.24,15.62L1641.43,378v1.34h-27.91Zm-29-21h26.78q13.18,0,20.6-6.65t7.41-18.17q0-12.06-6.85-18.64t-20.44-6.8h-27.5Z" transform="translate(-7.62 -15.77)"/><path class="cls-1" d="M1747.61,312.42H1686v46.14h72v20.8h-98v-150h97.33v21H1686v41.4h61.59Z" transform="translate(-7.62 -15.77)"/></g><path class="cls-1" d="M100.27,538.62q0,16-5.53,28.09a42.18,42.18,0,0,1-15.8,18.63,43.24,43.24,0,0,1-23.71,6.52q-20.29,0-32.79-14.52T10,538.14V526.21q0-15.84,5.61-28.05a41.68,41.68,0,0,1,39.51-25.35,43.31,43.31,0,0,1,23.6,6.45,42.31,42.31,0,0,1,15.79,18.22q5.57,11.77,5.81,27.3Zm-9.79-12.57q0-20.92-9.47-32.79T55.07,481.4q-16.16,0-25.74,11.9t-9.59,33.23v12.09q0,20.61,9.55,32.67t25.94,12.06q16.63,0,25.94-11.9t9.31-33.15Z" transform="translate(-7.62 -15.77)"/><path class="cls-1" d="M174.28,568.38A13.56,13.56,0,0,0,168.59,557q-5.68-4.31-17.15-6.73t-17.79-5.57a23.79,23.79,0,0,1-9.39-7.68,19.15,19.15,0,0,1-3.06-11q0-10.18,8.52-16.83t21.8-6.65q14.4,0,23.12,7.13a22.84,22.84,0,0,1,8.71,18.58H173.8a15.44,15.44,0,0,0-6.32-12.58q-6.33-5-16-5-9.39,0-15.08,4.18a12.88,12.88,0,0,0-5.69,10.86,11.76,11.76,0,0,0,4.73,10q4.74,3.54,17.27,6.48t18.78,6.29a24.37,24.37,0,0,1,9.28,8A22.12,22.12,0,0,1,175,585.34q-8.81,6.52-23,6.52-15,0-24.39-7.28t-9.35-18.42h9.55a16.54,16.54,0,0,0,7,13q6.48,4.65,17.15,4.65,9.94,0,16.07-4.37T174.28,568.38Z" transform="translate(-7.62 -15.77)"/><path class="cls-1" d="M215.9,590.27h-9.55V468h9.55Z" transform="translate(-7.62 -15.77)"/><path class="cls-1" d="M236.51,545.94a50.67,50.67,0,0,1,4.82-22.36,36.14,36.14,0,0,1,33.54-21q17.19,0,27.85,12.06t10.67,32v2a51.11,51.11,0,0,1-4.82,22.48A35.93,35.93,0,0,1,295,586.45a37.15,37.15,0,0,1-20,5.41q-17.11,0-27.81-12.06t-10.71-31.95Zm9.55,2.63q0,15.43,8,25.35a27.07,27.07,0,0,0,41.86,0q8-9.92,8-26.15v-1.83a43.8,43.8,0,0,0-3.66-18.06A29.49,29.49,0,0,0,290,515.19a26.2,26.2,0,0,0-15.12-4.5,25.44,25.44,0,0,0-20.77,10q-8,10-8,26.14Z" transform="translate(-7.62 -15.77)"/></g></svg>