<svg id="Layer_1" data-name="Layer 1" xmlns="http://www.w3.org/2000/svg" viewBox="0 0 892.99 995.32"><defs><style>.cls-1{fill:#fff;}</style></defs><g id="Layer_2" data-name="Layer 2"><g id="GPBSED.tif"><path class="cls-1" d="M858.66,499.06c15.46,21.94,31.14,42.54,45.06,64.29,19.26,30.18,34.08,62.51,40.07,98.21,4.82,28.82,3,56.92-10.79,83.27-14.29,27.29-37.19,44.94-65.2,56.55-25.64,10.61-52.59,14.82-80.12,16.44-34.39,2-68.4-1.17-102.22-7-5.6-1-7.64.86-9.47,5.87-12.46,34.17-27.92,66.88-48.37,97.09-17.23,25.47-37.19,48.43-63.78,64.59-46,28-95,25.31-138.32-6.74-31-23.05-53.41-53.37-71.16-87-11.52-21.84-20.91-44.82-30.62-67.59-2.39-5.65-4.78-7.11-10.6-6a429.5,429.5,0,0,1-89,7.54c-33.52-.82-66.55-5-97.49-19.28C79.58,777.47,54,741.13,53.37,689c-.37-32.65,9.76-63.09,23.94-92.25,15.65-32.2,35.6-61.54,58.4-89.06,2-2.36,3.75-4.85,5.7-7.38-9.89-13-20-25.58-29.27-38.67-23.55-33.21-43.26-68.41-53.28-108.25-7.61-30.21-8.6-60.39,3.74-89.76,13.25-31.56,37.57-51.78,68.5-64.71,26-10.86,53.36-15.12,81.38-16.67,34.46-1.91,68.4,1.33,102.23,7.13,5.12.88,6.9-.93,8.52-5.3,14.58-39.84,33-77.67,58.71-111.68C399.85,48.65,420.75,28,447.82,15,490-5.33,530.6-.79,569.05,25.1c30.42,20.48,51.88,49,70.4,79.95A447.65,447.65,0,0,1,676,183.61c1.88,5.22,4.26,6.54,9.68,5.56A445.59,445.59,0,0,1,776,181.62c36.76.9,72.82,5.9,105.76,23.62,39.15,21.07,61.38,53.45,63.94,98.51,1.92,33.86-7.6,65.12-21.57,95.29-15.8,34.12-36.79,64.94-60.75,93.81C861.6,495.08,859.94,497.42,858.66,499.06ZM698.9,500.43h0c0-11.47.47-23-.1-34.46-1.19-24.24-2.79-48.48-4.63-72.68a12.52,12.52,0,0,0-4.62-8q-15.39-11.49-31.47-22.06A1114.23,1114.23,0,0,0,506.35,279c-4.64-2.11-8.48-2.42-13.08-.08-21.49,10.86-43.31,21.1-64.62,32.31a979.46,979.46,0,0,0-119.1,74.41,11.55,11.55,0,0,0-4.23,7.54c-2,28.4-5.3,56.83-5.05,85.24.29,42.15,3.16,84.27,4.75,126.4.2,5.19,2.32,8.35,6.46,11.31a1077.55,1077.55,0,0,0,183,105.29,14.1,14.1,0,0,0,10.42,0c15.68-7.13,31.14-14.72,46.55-22.45a1007,1007,0,0,0,137.4-83.76,14.64,14.64,0,0,0,5.3-9.62c2.55-35,2.61-70.17,4.77-105.2Zm140.64,20.76c-1.78,1.5-2.71,2.09-3.44,2.89a820.75,820.75,0,0,1-111.58,99.56c-3.77,2.83-5.08,6.07-5.6,10.49A839.69,839.69,0,0,1,695.21,757c-2.35,8.66-4.84,17.29-7.33,26.19,2.21.45,3.68.88,5.19,1,20.61,2.18,41.2,5.22,61.86,6.25,35.79,1.76,71.13-1.33,104.54-15.74,27.5-11.86,47.8-30.75,55.74-60.65,5.86-22,3.25-43.82-2.81-65.32-9.08-32.27-25.06-61.22-44-88.57C859.24,546.92,849.3,534.3,839.54,521.19Zm-680.17,1.72c-.88,1.05-2.73,3.2-4.52,5.4-18.85,23.15-35.95,47.62-49.37,74.37-14.93,29.63-26.34,60.37-23.94,94.43,1.47,20.75,8.89,39,23.66,54.07,20.43,20.85,46.45,30,74.22,35.19,28.85,5.38,58,5.62,87.11,2.79,14.87-1.44,29.67-3.54,45.22-5.42-1-3.71-1.59-6.45-2.4-9.14A822.19,822.19,0,0,1,280.6,633.89c-.55-4.85-2.65-7.77-6.24-10.8q-42.29-35.61-84.16-71.69C179.69,542.33,169.8,532.55,159.37,522.91ZM839.78,477.5c-.29.24.29-.1.71-.59,23.69-28.47,44.7-58.75,59.88-92.66,11.53-25.78,19.88-52.44,17.6-81.3-1.6-20.55-8.92-38.59-23.29-53.56C877,231,854.59,221.63,830.36,216c-32.17-7.56-64.76-8-97.46-4.91-14.86,1.33-29.65,3.51-45.06,5.3.65,2.76.95,4.46,1.44,6.09a892.5,892.5,0,0,1,30.14,145.79,13.33,13.33,0,0,0,4.88,7.84,900.79,900.79,0,0,1,89.77,77.28c8.34,8.25,17.06,16,25.71,24.1ZM311.09,216.89c-1.75-.35-3.44-.84-5.15-1-20.59-2.17-41.16-5.3-61.83-6.22-35.78-1.55-71.16,1.33-104.52,16-30.39,13.35-51.23,35-57,68.76-3.46,19.54-.81,38.72,4.62,57.52,9.06,31.58,24.62,60,43.08,86.9,9.28,13.6,19.62,26.51,29.68,40.08,2-1.8,3.22-2.73,4.25-3.84a814,814,0,0,1,109.11-97.29c4.69-3.51,6.63-7.4,7.47-13,4.09-26.18,8-52.42,13.18-78.37C298.68,263.34,305.15,240.6,311.09,216.89ZM650.5,195.68a37.81,37.81,0,0,0-1.54-5.63c-8.06-18.16-15.45-36.66-24.48-54.34-16.34-31.87-36.38-61.19-65.26-83.25s-60.37-29.61-95-14.42c-19.17,8.4-34.68,21.81-48.43,37.25-23.36,26.15-40.18,56.4-54.35,88.24-4.6,10.39-8.64,21-13,31.81a44.46,44.46,0,0,0,4.18,1.53c49,11.12,96.36,27.49,142.68,46.92a14,14,0,0,0,9.78-.33A864.49,864.49,0,0,1,640,198.4c3.39-.76,6.72-1.71,10.36-2.69ZM348.84,804.47c.87,2.65,1.44,5,2.39,7.12,7.59,17.23,14.49,34.67,23,51.35,16.52,32.27,36.62,62.06,65.82,84.5,30.06,23.07,62.44,30.09,97.93,13.36,17.9-8.41,32.47-21.2,45.54-35.78,23.4-26.13,40.23-56.35,54.35-88.18,4.62-10.45,8.68-21.21,13.12-32a48.31,48.31,0,0,0-4.59-1.59C597.64,792,550.5,775.8,504.37,756.44a15,15,0,0,0-9.82.2c-36.29,12.59-72.38,25.68-108.68,38.09C374,798.76,361.59,801.16,348.84,804.47Zm374.93-216c1.36-.72,2.69-1.52,4-2.37a847.78,847.78,0,0,0,88.72-81.46c3.46-3.69,2.91-6.21-.44-9.28-25-23.38-49.78-46.91-74.82-70.25-5-4.67-10.77-8.55-17.6-13.92a1128.91,1128.91,0,0,1,.16,177.24ZM275.78,412a26.22,26.22,0,0,0-3.45,1.79A819.89,819.89,0,0,0,182.52,496c-3.44,3.69-2.11,6,.85,8.76,25.09,23.54,50.07,47.2,75.26,70.64,4.86,4.53,10.41,8.28,17.07,13.5a1142.64,1142.64,0,0,1,0-177Zm64.1-188.87c-8.67,18.17-29.65,112.51-27.94,126.66,48.19-33.43,98.82-62.22,152.11-88-21.92-11.44-106.57-37.65-124.23-38.72Zm320.31-.81A786.2,786.2,0,0,0,534.7,261.61a1134.16,1134.16,0,0,1,154.26,89,809.78,809.78,0,0,0-28.82-128.33ZM688,651.15a1230.09,1230.09,0,0,1-153.35,87.47c41.78,16.65,82.77,29.85,125.49,39.18A726,726,0,0,0,688,651.11ZM339.31,777.34c22.79-2.54,115.13-31.58,124-39.47a1126.87,1126.87,0,0,1-152.8-88.35c6.51,44.49,15.55,86.41,28.73,127.78Z" transform="translate(-53.21 -2.28)"/><path class="cls-1" d="M500.16,432c37.87-.06,67.59,29.67,67.67,67.67a68,68,0,0,1-65.5,68.73c-40.05,1.45-69.81-32-71-65.55C430,461.61,465.11,430,500.16,432Z" transform="translate(-53.21 -2.28)"/></g></g></svg>